# This file uses centimeters as units for non-parametric coordinates.

mtllib Tree_3.mtl
g default
v 43.752453 99.064255 -12.830154
v 23.571239 107.198380 69.424271
v -37.956654 109.878128 -33.946976
v -58.137867 118.012253 48.307480
v 88.490551 34.429153 -17.701920
v 24.017345 53.014206 126.580261
v -55.101276 51.604904 -84.079025
v -119.574482 70.189987 60.203110
v 52.022289 100.154770 24.290207
v 95.404613 35.340897 13.333069
v -2.640736 139.193954 15.823959
v -1.241505 103.926407 -41.951645
v -66.407703 116.921738 11.187119
v -13.143909 113.150070 77.428970
v -126.488544 69.278244 29.168137
v -6.678883 57.990219 133.272675
v -24.405079 46.628906 -90.771469
v 41.062023 119.394928 40.145126
v -28.520893 131.215942 63.982712
v 16.798901 118.598724 -30.285110
v -52.783985 130.419739 -6.447495
v 63.384197 52.823090 79.485489
v -72.766468 74.307312 99.780655
v 42.022594 47.402771 -58.081833
v -94.128101 68.887054 -37.786697
v 18.085155 124.281891 63.764267
v 44.174114 56.908875 99.232590
v -0.675648 159.828430 14.667679
v 40.418804 116.553040 -6.884262
v -29.807148 125.532776 -30.066666
v -52.140781 133.261627 40.581863
v -74.917988 64.801208 -57.533829
v -92.514210 76.017670 80.216080
v 61.770336 45.692474 -38.517288
v 39.856396 155.035461 34.185654
v -19.280949 165.081970 54.444809
v 19.235577 154.358826 -25.671799
v -39.901752 164.405334 -5.412613
v 57.675762 90.699829 68.104874
v -58.036396 108.958954 85.353409
v 39.520885 86.093231 -48.811295
v -76.191303 104.352356 -31.562790
v 20.328762 159.188843 54.259201
v 41.349438 94.172302 84.887650
v 5.012249 193.628510 12.268661
v 39.309734 152.620239 -5.783829
v -20.374149 160.251953 -25.486176
v -39.355122 166.820557 34.556870
v -59.864964 100.879883 -48.345535
v -74.819691 110.412537 68.725784
v 56.304180 84.639648 -32.183701
v 32.765255 226.235245 6.235748
v 4.506710 226.235245 32.804520
v 6.196484 226.235245 -22.022797
v -22.062046 226.235245 4.545990
v 55.509914 167.587997 16.118027
v -5.375553 167.587997 55.549179
v 16.078762 167.587997 -44.767441
v -44.806713 167.587997 -5.336319
v 26.776958 226.235245 22.513245
v 50.503323 167.587997 29.727051
v 5.351589 258.209534 5.390854
v 22.473980 226.235245 -16.034515
v -16.073780 226.235245 -11.731522
v -11.770786 226.235245 26.816223
v -39.800114 167.587997 -18.945328
v -18.984592 167.587997 50.542587
v 29.687801 167.587997 -39.760849
v 18.469082 247.984711 23.479218
v -13.170269 247.984711 18.330917
v 23.617382 247.984711 -8.160141
v -8.021971 247.984711 -13.308426
v 23.440710 184.523285 43.361893
v -33.052956 184.523285 23.302551
v 43.500069 184.523285 -13.131744
v -12.993593 184.523285 -33.191116
v 4.785495 247.984711 27.747803
v 12.000354 184.523285 46.930710
v 5.223555 282.583649 5.085388
v 27.885963 247.984711 5.523453
v 5.661616 247.984711 -17.577011
v -17.438856 247.984711 4.647324
v -1.553246 184.523285 -36.759933
v -36.621761 184.523285 11.862198
v 47.068878 184.523285 -1.691406
v 29.929028 187.690643 -12.972397
v 31.981091 195.671448 35.134933
v -18.823429 186.941742 -10.768570
v -16.771351 194.922516 37.338760
v 59.418255 125.824585 -16.480301
v 46.881542 140.258636 72.774399
v -30.972645 121.776215 -28.521957
v -43.509418 136.210236 60.732742
v 40.499828 191.032318 5.827103
v 68.256115 128.618408 -0.762711
v 5.828838 224.176086 6.762283
v 0.264416 185.645172 -21.271042
v -27.342182 191.580872 18.539291
v 12.893261 196.968048 45.637405
v -52.347263 133.416412 45.015182
v 30.922894 141.342651 81.555145
v -15.013996 120.692169 -37.302689
v 6.915858 0.000000 15.184647
v 22.545100 0.000000 15.184647
v 28.372078 0.000000 14.397934
v 7.201809 46.922840 13.304153
v 14.012827 87.270866 11.456131
v 22.877528 87.270866 10.216354
v 4.867978 212.947708 13.044968
v 14.070053 248.259140 11.213608
v 17.569268 248.259140 8.946976
v 9.709770 212.947708 6.454117
v 14.719377 248.259140 3.977615
v 5.847356 212.947708 -0.644516
v 7.620299 212.947708 -3.624191
v 15.193879 248.259140 -0.940170
v -1.226895 81.955269 -1.537643
v 7.620299 87.270866 -4.313370
v 15.711776 123.688675 -4.313370
v 0.907090 0.000000 -7.147110
v 7.620299 0.000000 -13.683029
v 18.625741 0.000000 -15.364883
v -0.907091 0.000000 7.147110
v 18.227874 0.000000 6.892502
v 16.496416 87.270866 6.454117
v -3.811026 94.462761 6.454117
v 11.893705 289.381531 5.649826
v 6.554169 285.576782 8.439468
v 9.223587 289.381592 6.755844
v 10.461949 289.381592 6.875748
v 12.092125 285.624725 8.792465
v 10.611915 285.512695 5.687515
v 11.893602 289.381531 5.304672
v 10.554319 289.381592 6.763046
v 14.200968 285.582825 7.430588
v 12.573127 289.381592 4.672012
v 13.700662 285.537994 4.438339
v 8.212249 285.635529 1.481674
v 9.160294 289.381592 3.283859
v 7.759396 289.381592 3.720718
v 6.737301 285.572021 2.722061
v 9.921658 289.381592 3.283859
v 12.769772 285.600494 1.479385
vt 0.251078 0.375527
vt 0.375527 0.251078
vt 0.500026 0.500000
vt 0.001992 0.126440
vt 0.126441 0.001992
vt 0.624473 0.251078
vt 0.748922 0.375527
vt 0.748922 0.624473
vt 0.624473 0.748922
vt 0.375527 0.748922
vt 0.251078 0.624473
vt 0.873560 0.001992
vt 0.998008 0.126440
vt 0.998008 0.873560
vt 0.873560 0.998008
vt 0.126441 0.998008
vt 0.001992 0.873560
vt 0.251078 0.375527
vt 0.375527 0.251078
vt 0.500026 0.500000
vt 0.001992 0.126440
vt 0.126441 0.001992
vt 0.624473 0.251078
vt 0.748922 0.375527
vt 0.748922 0.624473
vt 0.624473 0.748922
vt 0.375527 0.748922
vt 0.251078 0.624473
vt 0.873560 0.001992
vt 0.998008 0.126440
vt 0.998008 0.873560
vt 0.873560 0.998008
vt 0.126441 0.998008
vt 0.001992 0.873560
vt 0.251078 0.375527
vt 0.375527 0.251078
vt 0.500026 0.500000
vt 0.001992 0.126440
vt 0.126441 0.001992
vt 0.624473 0.251078
vt 0.748922 0.375527
vt 0.748922 0.624473
vt 0.624473 0.748922
vt 0.375527 0.748922
vt 0.251078 0.624473
vt 0.873560 0.001992
vt 0.998008 0.126440
vt 0.998008 0.873560
vt 0.873560 0.998008
vt 0.126441 0.998008
vt 0.001992 0.873560
vt 0.251078 0.375527
vt 0.375527 0.251078
vt 0.500026 0.500000
vt 0.001992 0.126440
vt 0.126441 0.001992
vt 0.624473 0.251078
vt 0.748922 0.375527
vt 0.748922 0.624473
vt 0.624473 0.748922
vt 0.375527 0.748922
vt 0.251078 0.624473
vt 0.873560 0.001992
vt 0.998008 0.126440
vt 0.998008 0.873560
vt 0.873560 0.998008
vt 0.126441 0.998008
vt 0.001992 0.873560
vt 0.251078 0.375527
vt 0.375527 0.251078
vt 0.500026 0.500000
vt 0.001992 0.126440
vt 0.126441 0.001992
vt 0.624473 0.251078
vt 0.748922 0.375527
vt 0.748922 0.624473
vt 0.624473 0.748922
vt 0.375527 0.748922
vt 0.251078 0.624473
vt 0.873560 0.001992
vt 0.998008 0.126440
vt 0.998008 0.873560
vt 0.873560 0.998008
vt 0.126441 0.998008
vt 0.001992 0.873560
vt 0.251078 0.375527
vt 0.375527 0.251078
vt 0.500026 0.500000
vt 0.001992 0.126440
vt 0.126441 0.001992
vt 0.624473 0.251078
vt 0.748922 0.375527
vt 0.748922 0.624473
vt 0.624473 0.748922
vt 0.375527 0.748922
vt 0.251078 0.624473
vt 0.873560 0.001992
vt 0.998008 0.126440
vt 0.998008 0.873560
vt 0.873560 0.998008
vt 0.126441 0.998008
vt 0.001992 0.873560
vt 0.822352 0.001992
vt 0.895049 0.001992
vt 0.890759 0.344115
vt 0.859078 0.451081
vt 0.001860 0.001992
vt 0.108065 0.001992
vt 0.123167 0.344115
vt 0.109348 0.344115
vt 0.891025 0.836798
vt 0.848223 0.836798
vt 0.931991 0.344115
vt 0.907301 0.836798
vt 0.732378 0.148517
vt 0.764836 0.148517
vt 0.764836 0.641200
vt 0.723685 0.735244
vt 0.800064 0.148517
vt 0.802473 0.498434
vt 0.764836 0.983323
vt 0.668313 0.983323
vt 0.816027 0.983323
vt 0.165103 0.001992
vt 0.328347 0.001992
vt 0.285124 0.486881
vt 0.165103 0.344115
vt 0.277442 0.836798
vt 0.198415 0.836798
vt 0.118558 0.836798
vt 0.334251 0.001992
vt 0.497494 0.001992
vt 0.497494 0.344115
vt 0.377474 0.250071
vt 0.660738 0.001992
vt 0.573849 0.451081
vt 0.497494 0.836798
vt 0.418369 0.836798
vt 0.570960 0.836798
vt 0.535884 0.983092
vt 0.508829 0.998008
vt 0.485509 0.998008
vt 0.491661 0.982841
vt 0.151842 0.998008
vt 0.121041 0.983280
vt 0.142926 0.983116
vt 0.153653 0.998008
vt 0.460055 0.998008
vt 0.444007 0.983074
vt 0.191011 0.982940
vt 0.187256 0.998008
vt 0.238560 0.983185
vt 0.209563 0.998008
vt 0.881825 0.983280
vt 0.856066 0.983092
vt 0.082134 0.836798
vt 0.385156 0.836798
vt 0.424074 0.983323
vt 0.767590 0.001992
vt 0.788788 0.002130
vn 0.788785 0.561246 0.250644
vn 0.600945 0.536476 -0.592501
vn 0.146598 0.987272 -0.061663
vn 0.799560 0.568111 -0.194819
vn 0.668154 0.503743 -0.547553
vn 0.377978 0.560571 -0.736813
vn -0.455963 0.695756 -0.554996
vn -0.596953 0.730661 -0.331334
vn -0.409114 0.755431 0.511811
vn -0.186146 0.731336 0.656123
vn 0.647795 0.596150 0.474306
vn -0.056140 0.660579 -0.748654
vn -0.417305 0.660108 -0.624591
vn -0.597224 0.794536 0.109710
vn -0.483721 0.738334 0.469975
vn 0.258475 0.702067 0.663546
vn 0.601738 0.581969 0.547013
vn 0.784252 0.453313 0.423622
vn 0.524817 0.419103 -0.740891
vn -0.626985 0.605815 -0.489774
vn -0.367550 0.640026 0.674740
vn 0.242470 0.577582 0.779492
vn 0.891073 0.439630 0.112756
vn 0.146598 0.987273 -0.061663
vn 0.658553 0.534101 0.530136
vn 0.892237 0.410442 0.188285
vn 0.886945 0.421389 -0.189102
vn 0.220189 0.479136 -0.849674
vn -0.078953 0.523642 -0.848272
vn -0.727555 0.661595 -0.181537
vn -0.723427 0.679836 0.120322
vn -0.056671 0.622089 0.780893
vn 0.642983 0.465307 -0.608327
vn 0.288074 0.435113 -0.853048
vn -0.485230 0.633162 -0.603040
vn -0.738483 0.625024 -0.252958
vn -0.469660 0.701957 0.535422
vn -0.134321 0.600353 0.788374
vn 0.076612 0.487536 0.869735
vn 0.953075 0.301120 -0.031231
vn 0.052081 0.379153 -0.923867
vn -0.824382 0.565570 -0.022901
vn 0.243900 0.530144 0.812072
vn 0.913410 0.387744 0.123845
vn 0.146598 0.987272 -0.061663
vn 0.675961 0.481399 0.557971
vn 0.914661 0.355131 0.193072
vn 0.909056 0.368510 -0.194469
vn 0.220808 0.428118 -0.876333
vn -0.094641 0.475050 -0.874855
vn -0.764151 0.617450 -0.186628
vn -0.759797 0.636684 0.131686
vn -0.071549 0.577076 0.813550
vn 0.659712 0.409609 -0.630080
vn 0.281824 0.382070 -0.880112
vn -0.517646 0.584776 -0.624563
vn -0.776041 0.578419 -0.251380
vn -0.501398 0.656567 0.563489
vn -0.143203 0.551480 0.821805
vn 0.070185 0.443596 0.893474
vn 0.967090 0.252832 -0.028504
vn 0.045082 0.332686 -0.941960
vn -0.851822 0.523450 -0.019981
vn 0.546746 0.368530 0.751835
vn 0.903631 0.368530 -0.218259
vn 0.000000 1.000000 -0.000000
vn 0.864619 0.388917 0.318084
vn 0.926994 0.329228 -0.179700
vn 0.751835 0.368530 -0.546746
vn -0.218259 0.368530 -0.903631
vn -0.546746 0.368529 -0.751834
vn -0.903631 0.368530 0.218259
vn -0.751835 0.368530 0.546746
vn 0.218259 0.368530 0.903631
vn 0.318082 0.388916 -0.864620
vn -0.179700 0.329228 -0.926994
vn -0.864620 0.388916 -0.318083
vn -0.926994 0.329228 0.179700
vn -0.318084 0.388916 0.864619
vn 0.179700 0.329228 0.926993
vn 0.403806 0.270848 0.873832
vn 0.873832 0.270848 -0.403805
vn -0.403805 0.270848 -0.873832
vn -0.873832 0.270848 0.403806
vn -0.265835 0.292784 0.918482
vn 0.740906 0.292784 0.604429
vn 0.000000 1.000000 -0.000001
vn 0.283429 0.306863 0.908572
vn 0.729648 0.255845 0.634159
vn 0.918482 0.292784 0.265835
vn 0.604429 0.292784 -0.740907
vn 0.265835 0.292784 -0.918482
vn -0.740907 0.292784 -0.604429
vn -0.918482 0.292784 -0.265836
vn -0.604429 0.292784 0.740907
vn 0.908573 0.306862 -0.283428
vn 0.634159 0.255845 -0.729648
vn -0.283428 0.306863 -0.908572
vn -0.729648 0.255845 -0.634158
vn -0.908572 0.306863 0.283428
vn -0.634158 0.255845 0.729648
vn -0.454085 0.210097 0.865833
vn 0.865833 0.210097 0.454085
vn 0.454085 0.210097 -0.865833
vn -0.865833 0.210096 -0.454085
vn 0.890001 0.455928 0.005219
vn 0.400453 0.301172 -0.865409
vn -0.022507 0.986422 -0.162683
vn 0.768978 0.395041 -0.502609
vn 0.455644 0.265367 -0.849687
vn 0.069668 0.278363 -0.957946
vn -0.814315 0.338409 -0.471562
vn -0.909306 0.390139 -0.144755
vn -0.419758 0.544895 0.725874
vn -0.088973 0.567705 0.818410
vn 0.795010 0.507658 0.332026
vn -0.441738 0.311558 -0.841308
vn -0.803751 0.291197 -0.518834
vn -0.789419 0.500898 0.354850
vn -0.473188 0.503526 0.722880
vn 0.421298 0.584382 0.693546
vn 0.786207 0.477696 0.392026
vn 0.902597 0.380049 0.202194
vn 0.254036 0.175026 -0.951226
vn -0.917077 0.254575 -0.306858
vn -0.268517 0.459599 0.846562
vn 0.006476 0.042158 0.999090
vn 0.067209 0.048617 0.996554
vn 0.208757 0.012985 0.977881
vn 0.025648 0.038558 0.998927
vn 0.136429 0.055788 0.989078
vn 0.219066 0.027688 0.975317
vn 0.172030 0.032163 0.984567
vn 0.204635 0.004383 0.978828
vn 0.301909 0.016670 0.953191
vn -0.553607 0.024087 -0.832430
vn -0.127243 0.020741 -0.991655
vn -0.350387 0.064893 -0.934354
vn -0.514804 0.052152 -0.855720
vn 0.034450 0.059268 -0.997647
vn 0.065362 0.022860 -0.997600
vn -0.371109 0.081792 -0.924980
vn -0.529350 0.068179 -0.845660
vn -0.255730 0.089647 -0.962583
vn 0.956693 0.016645 -0.290622
vn 0.999700 0.021415 0.011907
vn 0.999945 0.010426 0.001216
vn 0.957567 0.016452 -0.287741
vn 0.563350 0.001453 -0.826217
vn 0.630006 0.004191 -0.776579
vn 0.999896 0.012434 -0.007258
vn 0.935093 0.013580 -0.354141
vn 0.724138 0.012184 -0.689548
vn -0.983192 -0.023029 -0.181116
vn -0.952838 -0.013097 0.303196
vn -0.958328 0.048333 0.281553
vn -0.989270 -0.004055 -0.146040
vn -0.615492 0.002949 0.788137
vn -0.645799 0.006366 0.763481
vn -0.978940 0.040555 0.200079
vn -0.975050 0.058324 0.214188
vn -0.979569 0.024727 0.199584
vn -0.529021 0.044175 -0.847458
vn -0.529021 0.044175 -0.847458
vn -0.975880 0.120489 0.182047
vn -0.988968 0.119925 0.086951
vn -0.065718 0.436308 0.897394
vn -0.065718 0.436308 0.897394
vn -0.065718 0.436308 0.897394
vn -0.065718 0.436308 0.897394
vn 0.468216 0.560606 0.683004
vn 0.468216 0.560606 0.683004
vn 0.744509 0.552303 0.375059
vn 0.687298 0.563398 0.458480
vn -0.491976 0.078068 0.867102
vn -0.491976 0.078068 0.867102
vn 0.812179 0.557121 -0.173153
vn 0.811926 0.557071 -0.174494
vn 0.673034 0.497279 -0.547484
vn 0.673034 0.497279 -0.547484
vn -0.194051 0.436630 -0.878463
vn -0.160908 0.437159 -0.884873
vn 0.002464 0.432612 -0.901577
vn 0.002464 0.432612 -0.901577
vn -0.465867 0.411800 -0.783192
vn -0.465867 0.411800 -0.783192
vn 0.000011 1.000000 -0.000047
vn 0.000007 1.000000 -0.000049
vn -0.000030 1.000000 -0.000019
vn 0.000005 1.000000 -0.000015
vn -0.000224 -1.000000 -0.000101
vn -0.000019 1.000000 0.000022
vn -0.000005 1.000000 0.000008
vn 0.000002 1.000000 0.000000
vn -0.000016 1.000000 0.000023
vn -0.052436 0.063526 0.996602
vn -0.052436 0.063526 0.996602
vn -0.724060 -0.012608 -0.689622
vn -0.998356 -0.009077 -0.056597
vn 0.541794 0.082876 0.836415
vn 0.541794 0.082876 0.836415
vn 0.971081 0.049155 -0.233635
vn 0.920531 0.048647 -0.387628
vn -0.792035 0.043580 -0.608918
vn -0.792035 0.043580 -0.608918
vn -0.792800 -0.001129 0.609481
vn 0.997186 0.048223 -0.057395
vn 0.021098 0.068570 -0.997423
vn 0.021098 0.068570 -0.997423
s 1
g tree_3
usemtl lambert2SG
f 9/1/1 1/2/2 11/3/3
f 1/2/2 9/1/1 10/4/4 5/5/5
f 11/3/3 12/6/6 3/7/7
f 11/3/3 13/8/8 4/9/9
f 11/3/3 14/10/10 2/11/11
f 3/7/7 12/6/6 17/12/12 7/13/13
f 4/9/9 13/8/8 15/14/14 8/15/15
f 2/11/11 14/10/10 16/16/16 6/17/17
f 9/1/1 11/3/3 2/11/11
f 14/10/10 11/3/3 4/9/9
f 11/3/3 3/7/7 13/8/8
f 1/2/2 12/6/6 11/3/3
f 9/1/1 2/11/11 6/17/17 10/4/18
f 12/6/6 1/2/2 5/5/5 17/12/19
f 13/8/8 3/7/7 7/13/13 15/14/20
f 14/10/10 4/9/9 8/15/15 16/16/21
s 2
f 26/18/22 18/19/23 28/20/24
f 18/19/23 26/18/22 27/21/25 22/22/26
f 28/20/24 29/23/27 20/24/28
f 28/20/24 30/25/29 21/26/30
f 28/20/24 31/27/31 19/28/32
f 20/24/28 29/23/27 34/29/33 24/30/34
f 21/26/30 30/25/29 32/31/35 25/32/36
f 19/28/32 31/27/31 33/33/37 23/34/38
f 26/18/22 28/20/24 19/28/32
f 31/27/31 28/20/24 21/26/30
f 28/20/24 20/24/28 30/25/29
f 18/19/23 29/23/27 28/20/24
f 26/18/22 19/28/32 23/34/38 27/21/39
f 29/23/27 18/19/23 22/22/26 34/29/40
f 30/25/29 20/24/28 24/30/34 32/31/41
f 31/27/31 21/26/30 25/32/36 33/33/42
s 3
f 43/35/43 35/36/44 45/37/45
f 35/36/44 43/35/43 44/38/46 39/39/47
f 45/37/45 46/40/48 37/41/49
f 45/37/45 47/42/50 38/43/51
f 45/37/45 48/44/52 36/45/53
f 37/41/49 46/40/48 51/46/54 41/47/55
f 38/43/51 47/42/50 49/48/56 42/49/57
f 36/45/53 48/44/52 50/50/58 40/51/59
f 43/35/43 45/37/45 36/45/53
f 48/44/52 45/37/45 38/43/51
f 45/37/45 37/41/49 47/42/50
f 35/36/44 46/40/48 45/37/45
f 43/35/43 36/45/53 40/51/59 44/38/60
f 46/40/48 35/36/44 39/39/47 51/46/61
f 47/42/50 37/41/49 41/47/55 49/48/62
f 48/44/52 38/43/51 42/49/57 50/50/63
s 4
f 60/52/64 52/53/65 62/54/66
f 52/53/65 60/52/64 61/55/67 56/56/68
f 62/54/66 63/57/69 54/58/70
f 62/54/66 64/59/71 55/60/72
f 62/54/66 65/61/73 53/62/74
f 54/58/70 63/57/69 68/63/75 58/64/76
f 55/60/72 64/59/71 66/65/77 59/66/78
f 53/62/74 65/61/73 67/67/79 57/68/80
f 60/52/64 62/54/66 53/62/74
f 65/61/73 62/54/66 55/60/72
f 62/54/66 54/58/70 64/59/71
f 52/53/65 63/57/69 62/54/66
f 60/52/64 53/62/74 57/68/80 61/55/81
f 63/57/69 52/53/65 56/56/68 68/63/82
f 64/59/71 54/58/70 58/64/76 66/65/83
f 65/61/73 55/60/72 59/66/78 67/67/84
s 5
f 77/69/85 69/70/86 79/71/87
f 69/70/86 77/69/85 78/72/88 73/73/89
f 79/71/87 80/74/90 71/75/91
f 79/71/87 81/76/92 72/77/93
f 79/71/87 82/78/94 70/79/95
f 71/75/91 80/74/90 85/80/96 75/81/97
f 72/77/93 81/76/92 83/82/98 76/83/99
f 70/79/95 82/78/94 84/84/100 74/85/101
f 77/69/85 79/71/87 70/79/95
f 82/78/94 79/71/87 72/77/93
f 79/71/87 71/75/91 81/76/92
f 69/70/86 80/74/90 79/71/87
f 77/69/85 70/79/95 74/85/101 78/72/102
f 80/74/90 69/70/86 73/73/89 85/80/103
f 81/76/92 71/75/91 75/81/97 83/82/104
f 82/78/94 72/77/93 76/83/99 84/84/105
s 6
f 94/86/106 86/87/107 96/88/108
f 86/87/107 94/86/106 95/89/109 90/90/110
f 96/88/108 97/91/111 88/92/112
f 96/88/108 98/93/113 89/94/114
f 96/88/108 99/95/115 87/96/116
f 88/92/112 97/91/111 102/97/117 92/98/118
f 89/94/114 98/93/113 100/99/119 93/100/120
f 87/96/116 99/95/115 101/101/121 91/102/122
f 94/86/106 96/88/108 87/96/116
f 99/95/115 96/88/108 89/94/114
f 96/88/108 88/92/112 98/93/113
f 86/87/107 97/91/111 96/88/108
f 94/86/106 87/96/116 91/102/122 95/89/123
f 97/91/111 86/87/107 90/90/110 102/97/124
f 98/93/113 88/92/112 92/98/118 100/99/125
f 99/95/115 89/94/114 93/100/120 101/101/126
s 7
usemtl lambert3SG
f 103/103/127 104/104/128 107/105/129 106/106/130
f 104/107/128 105/108/131 108/109/132 107/110/129
f 106/106/130 107/105/129 110/111/133 109/112/134
f 107/105/129 108/113/132 111/114/135 110/111/133
s 8
f 114/115/136 115/116/137 118/117/138 117/118/139
f 115/116/137 116/119/140 119/120/141 118/117/138
f 117/118/139 118/117/138 121/121/142 120/122/143
f 118/117/138 119/120/141 122/123/144 121/121/142
s 9
f 124/124/145 122/125/146 119/126/147 125/127/148
f 105/108/149 124/124/145 125/127/148 108/109/150
f 125/127/148 119/126/147 116/128/151 113/129/152
f 108/109/150 125/127/148 113/129/152 111/130/153
s 10
f 120/131/154 123/132/155 126/133/156 117/134/157
f 123/132/155 103/135/158 106/136/159 126/133/156
f 117/134/157 126/133/156 112/137/160 114/138/161
f 126/133/156 106/136/159 109/139/162 112/137/160
s 11
f 128/140/163 129/141/164 133/142/165 132/143/166
s off
f 129//167 128//168 131//169 130//170
s 12
f 130/144/171 131/145/172 135/146/173 134/147/174
s 11
f 132/143/166 133/142/165 140/148/175 141/149/176
s 12
f 134/147/174 135/146/173 137/150/177 136/151/178
f 136/151/178 137/150/177 143/152/179 142/153/180
s 13
f 138//181 139//182 142//183 143//184
f 139//182 138//181 141//185 140//186
s 14
f 129//187 130//188 127//189 133//190
f 130//188 134//191 136//192 127//189
f 133//190 127//189 139//193 140//194
f 127//189 136//192 142//195 139//193
s 7
f 109/112/134 110/111/133 131/154/196 128/155/197
s 10
f 112/137/160 109/139/162 128/140/198 132/143/199
s 7
f 110/156/133 111/130/135 135/146/200 131/145/201
s 9
f 111/130/153 113/129/152 137/150/202 135/146/203
s 8
f 115/157/137 114/138/136 141/149/204 138/158/205
s 10
f 114/138/161 112/137/160 132/143/199 141/149/206
s 9
f 113/129/152 116/128/151 143/152/207 137/150/202
s 8
f 116/119/140 115/116/137 138/159/208 143/160/209
